<?xml version="1.0" encoding="UTF-8" standalone="no"?>
<!-- Created with Inkscape (http://www.inkscape.org/) -->

<svg
   xmlns:dc="http://purl.org/dc/elements/1.1/"
   xmlns:cc="http://creativecommons.org/ns#"
   xmlns:rdf="http://www.w3.org/1999/02/22-rdf-syntax-ns#"
   xmlns:svg="http://www.w3.org/2000/svg"
   xmlns="http://www.w3.org/2000/svg"
   xmlns:sodipodi="http://sodipodi.sourceforge.net/DTD/sodipodi-0.dtd"
   xmlns:inkscape="http://www.inkscape.org/namespaces/inkscape"
   version="1.1"
   id="svg4504"
   xml:space="preserve"
   width="1600"
   height="1066.6667"
   viewBox="0 0 1600 1066.6667"
   sodipodi:docname="ferriseyes.svg"
   inkscape:export-filename="/home/frans/Documents/rust/ferriseyes.png"
   inkscape:export-xdpi="2.4689994"
   inkscape:export-ydpi="2.4689994"
   inkscape:version="0.92.2 5c3e80d, 2017-08-06"><metadata
     id="metadata4510"><rdf:RDF><cc:Work
         rdf:about=""><dc:format>image/svg+xml</dc:format><dc:type
           rdf:resource="http://purl.org/dc/dcmitype/StillImage" /><dc:title></dc:title></cc:Work></rdf:RDF></metadata><defs
     id="defs4508"><clipPath
       clipPathUnits="userSpaceOnUse"
       id="clipPath4520"><path
         d="M 0,800 H 1200 V 0 H 0 Z"
         id="path4518"
         inkscape:connector-curvature="0" /></clipPath><clipPath
       id="clipPath16"
       clipPathUnits="userSpaceOnUse"><path
         inkscape:connector-curvature="0"
         id="path18"
         d="M 0,36 H 36 V 0 H 0 Z" /></clipPath></defs><sodipodi:namedview
     pagecolor="#ffffff"
     bordercolor="#666666"
     borderopacity="1"
     objecttolerance="10"
     gridtolerance="10"
     guidetolerance="10"
     inkscape:pageopacity="0"
     inkscape:pageshadow="2"
     inkscape:window-width="1279"
     inkscape:window-height="969"
     id="namedview4506"
     showgrid="false"
     inkscape:zoom="0.15180699"
     inkscape:cx="1261.4781"
     inkscape:cy="189.17878"
     inkscape:window-x="1245"
     inkscape:window-y="6"
     inkscape:window-maximized="1"
     inkscape:current-layer="g4512" /><g
     id="g4512"
     inkscape:groupmode="layer"
     inkscape:label="rustacean-flat-gesture"
     transform="matrix(1.3333333,0,0,-1.3333333,0,1066.6667)"><g
       id="g4522"
       transform="translate(654.1719,454.2886)"><path
         d="m 0,0 c -114.597,0 -218.172,-13.779 -296.172,-36.229 v 5.071 c -78,-25.095 -127.681,-59.959 -127.681,-98.506 0,-6.077 1.345,-12.062 3.703,-17.931 l -7.984,-14.321 c 0,0 -6.413,-8.359 4.935,-25.999 10.01,-15.554 60.164,-76.438 86.628,-108.32 11.367,-16.348 19.083,-26.413 19.757,-25.44 1.061,1.543 -7.064,32.229 -29.639,67.242 -10.533,18.805 -23.358,43.719 -30.908,62.12 21.081,-13.342 49.189,-25.445 81.189,-35.861 v 0.159 c 78,-22.453 181.575,-36.229 296.172,-36.229 131.156,0 248.828,18.046 327.828,46.491 V -46.495 C 248.828,-18.048 131.156,0 0,0"
         style="fill:#a52b00;fill-opacity:1;fill-rule:nonzero;stroke:none"
         id="path4524"
         inkscape:connector-curvature="0" /></g><g
       id="g4526"
       transform="translate(1099.8682,295.459)"><path
         d="m 0,0 -13.433,27.828 c 0.071,1.056 0.124,2.114 0.124,3.175 0,31.548 -32.805,60.62 -87.997,83.901 V -52.898 c 25.751,10.864 46.645,22.984 61.586,36.037 -4.398,-17.683 -19.437,-53.455 -31.428,-78.611 -19.707,-35.981 -26.845,-67.303 -25.929,-68.853 0.584,-0.978 7.307,9.393 17.222,26.2 23.072,32.876 66.792,95.64 75.53,111.627 C 5.574,-8.375 0,0 0,0"
         style="fill:#a52b00;fill-opacity:1;fill-rule:nonzero;stroke:none"
         id="path4528"
         inkscape:connector-curvature="0" /></g><g
       id="g4530"
       transform="translate(1177.8662,295.6152)"><path
         d="m 0,0 -88.296,65.043 c -0.83,2.895 -1.66,5.787 -2.516,8.658 l 29.002,42.016 c 2.961,4.274 3.558,9.829 1.635,14.703 -1.925,4.85 -6.136,8.327 -11.117,9.179 l -49.043,8.321 c -1.898,3.879 -3.89,7.698 -5.889,11.484 l 20.604,47.172 c 2.119,4.806 1.673,10.39 -1.139,14.751 -2.797,4.383 -7.551,6.942 -12.617,6.743 l -49.77,-1.809 c -2.577,3.356 -5.194,6.68 -7.866,9.946 l 11.438,50.56 c 1.159,5.132 -0.302,10.508 -3.879,14.238 -3.555,3.716 -8.722,5.254 -13.636,4.05 l -48.478,-11.919 c -3.14,2.775 -6.33,5.513 -9.559,8.196 l 1.745,51.907 c 0.188,5.254 -2.262,10.247 -6.468,13.163 -4.204,2.934 -9.54,3.376 -14.138,1.196 l -45.226,-21.502 c -3.64,2.09 -7.302,4.16 -11.005,6.163 l -7.991,51.148 c -0.812,5.181 -4.146,9.584 -8.815,11.594 -4.655,2.022 -9.99,1.367 -14.077,-1.71 l -40.321,-30.253 c -3.97,1.318 -7.958,2.583 -11.996,3.792 l -17.38,48.504 c -1.766,4.945 -5.842,8.576 -10.81,9.597 -4.953,1.012 -10.048,-0.703 -13.483,-4.539 l -33.938,-37.971 c -4.104,0.471 -8.21,0.901 -12.327,1.259 l -26.208,44.154 c -2.656,4.472 -7.344,7.193 -12.397,7.193 -5.041,0 -9.739,-2.721 -12.372,-7.193 l -26.214,-44.154 c -4.119,-0.358 -8.244,-0.788 -12.341,-1.259 l -33.943,37.971 c -3.437,3.836 -8.551,5.551 -13.487,4.539 -4.966,-1.035 -9.045,-4.652 -10.806,-9.597 l -17.393,-48.504 c -4.027,-1.209 -8.017,-2.482 -11.997,-3.792 l -40.308,30.253 c -4.098,3.088 -9.432,3.741 -14.098,1.71 -4.65,-2.01 -7.997,-6.413 -8.803,-11.594 l -7.997,-51.148 c -3.7,-2.003 -7.363,-4.062 -11.014,-6.163 l -45.222,21.502 c -4.592,2.189 -9.952,1.738 -14.135,-1.196 -4.201,-2.916 -6.656,-7.909 -6.466,-13.163 l 1.736,-51.907 c -3.219,-2.683 -6.403,-5.421 -9.558,-8.196 l -48.47,11.919 c -4.925,1.195 -10.086,-0.334 -13.65,-4.05 -3.585,-3.73 -5.039,-9.106 -3.885,-14.238 l 11.415,-50.56 c -2.649,-3.279 -5.27,-6.59 -7.839,-9.946 l -49.771,1.809 c -5.023,0.148 -9.817,-2.36 -12.623,-6.743 -2.812,-4.361 -3.237,-9.945 -1.146,-14.751 l 20.619,-47.172 c -2.003,-3.786 -3.992,-7.605 -5.906,-11.484 l -49.04,-8.321 c -4.982,-0.841 -9.183,-4.316 -11.12,-9.179 -1.925,-4.874 -1.3,-10.429 1.639,-14.703 l 29.01,-42.016 c -0.224,-0.741 -0.43,-1.49 -0.653,-2.233 l -82.017,-87.122 c 0,0 -12.569,-9.851 5.731,-33.002 16.133,-20.421 98.988,-101.376 142.747,-143.789 18.483,-21.532 31.143,-34.866 32.466,-33.712 2.088,1.832 -8.871,41.006 -45.275,86.97 -28.06,41.239 -64.478,104.666 -55.939,111.977 0,0 9.714,12.331 29.204,21.207 0.713,-0.571 -0.737,0.565 0,0 0,0 411.314,-189.736 792.846,-3.21 43.584,7.817 69.968,-15.529 69.968,-15.529 9.099,-5.276 -14.463,-70.495 -33.838,-113.666 -26.353,-49.023 -30.217,-87.276 -27.982,-88.602 1.409,-0.842 10.998,13.747 24.674,36.966 C -75.469,-143.021 -11.675,-53.379 0,-31.606 13.239,-6.919 0,0 0,0"
         style="fill:#f74c00;fill-opacity:1;fill-rule:nonzero;stroke:none"
         id="path4532"
         inkscape:connector-curvature="0" /></g><g
       id="g4534"
       transform="translate(795.8564,175.4316)"><path
         d="M 0,0 C 1.575,1.342 2.4,2.139 2.4,2.139 L -132.25,14.646 C -22.348,159.631 65.618,42.664 74.988,29.752 V 0 Z"
         style="fill:#000000;fill-opacity:1;fill-rule:nonzero;stroke:none"
         id="path4536"
         inkscape:connector-curvature="0" /></g><g
       id="g4538"
       transform="translate(278.4185,335.1689)"><path
         d="m 0,0 c 0,0 -111.096,43.25 -129.876,89.798 0,0 130.391,103.717 -25.621,213.886 l -4.229,-140.417 c 0,0 -46.226,44.594 -44.186,122.683 0,0 -143.773,-69.178 24.476,-191.577 0,0 5.676,-65.698 156.977,-145.017 z"
         style="fill:#f74c00;fill-opacity:1;fill-rule:nonzero;stroke:none"
         id="path4540"
         inkscape:connector-curvature="0" /></g><g
       id="g4546"
       transform="translate(777.5361,377.7959)"><path
         d="m 0,0 c 0,-17.523 -10.329,-31.73 -23.07,-31.73 -12.739,0 -23.069,14.207 -23.069,31.73 0,17.529 10.33,31.738 23.069,31.738 C -10.329,31.738 0,17.529 0,0"
         style="fill:#ffffff;fill-opacity:1;fill-rule:nonzero;stroke:none"
         id="path4548"
         inkscape:connector-curvature="0" /></g><g
       id="g4554"
       transform="translate(581.9033,376.6465)"><path
         d="m 0,0 c 0,-18.072 -10.653,-32.729 -23.794,-32.729 -13.137,0 -23.792,14.657 -23.792,32.729 0,18.078 10.655,32.731 23.792,32.731 C -10.653,32.731 0,18.078 0,0"
         style="fill:#ffffff;fill-opacity:1;fill-rule:nonzero;stroke:none"
         id="path4556"
         inkscape:connector-curvature="0" /></g><g
       id="g4558"
       transform="translate(1002.2344,318.1289)"><path
         d="m 0,0 c 0,0 -14.723,-58.643 -106.292,-120.267 l -25.678,-6.018 c 0,0 -83.066,151.481 -200.749,-19.221 0,0 36.677,21.354 135,-4.65 0,0 -45.23,-69.226 -136.342,-67.099 0,0 87.313,-104.749 220.18,46.554 0,0 140.455,54.315 151.845,170.701 z"
         style="fill:#f74c00;fill-opacity:1;fill-rule:nonzero;stroke:none"
         id="path4560"
         inkscape:connector-curvature="0" /></g><g
       transform="matrix(17.385826,0,0,17.385826,360.41758,161.87315)"
       id="g10"><g
         id="g12"><g
           clip-path="url(#clipPath16)"
           id="g14"><g
             transform="translate(17,18)"
             id="g20"><path
               inkscape:connector-curvature="0"
               id="path22"
               style="fill:#e1e8ed;fill-opacity:1;fill-rule:nonzero;stroke:none"
               d="m 0,0 c 0,-5.523 -3.806,-10 -8.5,-10 -4.694,0 -8.5,4.477 -8.5,10 0,5.523 3.806,10 8.5,10 C -3.806,10 0,5.523 0,0" /></g><g
             transform="translate(36,18)"
             id="g24"><path
               inkscape:connector-curvature="0"
               id="path26"
               style="fill:#e1e8ed;fill-opacity:1;fill-rule:nonzero;stroke:none"
               d="m 0,0 c 0,-5.523 -3.806,-10 -8.5,-10 -4.694,0 -8.5,4.477 -8.5,10 0,5.523 3.806,10 8.5,10 C -3.806,10 0,5.523 0,0" /></g><g
             transform="translate(8,14)"
             id="g28"><path
               inkscape:connector-curvature="0"
               id="path30"
               style="fill:#292f33;fill-opacity:1;fill-rule:nonzero;stroke:none"
               d="m 0,0 c 0,-1.657 -1.343,-3 -3,-3 -1.657,0 -3,1.343 -3,3 0,1.657 1.343,3 3,3 1.657,0 3,-1.343 3,-3" /></g><g
             transform="translate(27,14)"
             id="g32"><path
               inkscape:connector-curvature="0"
               id="path34"
               style="fill:#292f33;fill-opacity:1;fill-rule:nonzero;stroke:none"
               d="m 0,0 c 0,-1.657 -1.344,-3 -3,-3 -1.656,0 -3,1.343 -3,3 0,1.657 1.344,3 3,3 1.656,0 3,-1.343 3,-3" /></g></g></g></g></g></svg>